<svg width="741" height="216" viewBox="0 0 741 216" fill="none" xmlns="http://www.w3.org/2000/svg">
<path d="M247.113 28.578H292.449V192.223H247.113V28.578ZM316.237 192.223V28.578H440.908V60.306H361.572V94.073H434.556V125.807H361.572V160.481H440.908V192.223H316.237ZM466.307 192.223V28.578H590.946V60.306H511.631V94.073H584.591V125.807H511.631V160.481H590.946V192.223H466.307ZM616.331 192.223V28.578H741V60.306H661.693V94.073H734.658V125.807H661.693V160.481H740.999V192.223H616.331ZM103.417 126.821C102.818 138.376 102.67 149.071 101.815 160.655C106.388 161.07 111.551 161.469 116.428 160.759L114.969 128.467L114.713 126.93C110.999 127.074 107.485 127.223 103.417 126.821ZM74.8507 94.3725C69.2165 97.1958 60.928 101.463 61.8427 109.19C63.0497 113.408 67.6173 116.134 71.2326 117.868C91.2121 126.671 117.736 126.97 138.83 120.4C144.037 118.393 151.029 115.483 151.986 109.103C151.929 103.832 146.349 100.514 142.34 98.4953V98.245C143.738 97.6936 145.346 97.1958 146.793 97.0439V96.9035C139.729 95.6373 132.906 93.7893 126.064 91.9804C127.381 94.9832 128.333 98.1495 129.431 101.271C131.487 100.612 133.595 100.113 135.814 99.8093C139.422 101.214 144.59 103.224 145.103 107.735C145.503 111.955 140.885 114.01 137.969 115.723C122.496 121.353 105.087 121.902 88.95 117.622C84.4924 116.218 78.0608 114.415 77.5079 108.739C80.6716 101.269 88.8545 99.7138 95.6885 97.9006C92.1759 95.6373 88.6041 93.6345 85.2001 91.1165C81.5241 91.3191 78.1664 92.9283 74.8507 94.3725ZM109.035 49.2963L107.032 55.7259L96.9881 84.493C99.5035 84.7492 102.618 84.493 105.087 84.7492V84.9865L103.618 117.526L103.871 117.868C107.084 118.183 111.096 118.344 114.371 117.785V117.273L113.06 85.7115L113.257 84.6435L122.094 84.493C117.687 72.8481 113.41 61.086 109.294 49.2963H109.035ZM104.368 34.8426C111.757 29.8095 118.387 36.8468 124.113 40.8683C146.25 58.6852 167.14 79.0794 183.06 102.11C185.064 105.081 185.972 109.696 184.173 113.059C180.047 119.942 174.478 126.223 169.199 132.602V132.951C156.038 146.959 142.138 161.361 127.119 173.224C119.788 177.684 113.06 187.425 103.618 181.39C82.1189 165.682 61.546 146.152 44.1064 125.205C41.1497 120.6 36.5329 116.826 34.4763 111.602C31.6064 104.53 37.9339 99.4548 41.5535 94.1279C59.336 72.1998 81.4199 50.6971 104.368 34.8426ZM122.897 13.8999L114.714 2.30418C113.71 1.6935 112.461 0.680521 111.351 0.383863C108.938 -0.662401 106.336 0.603824 104.366 2.09725L89.5608 21.38C65.8053 50.797 37.6849 78.2647 7.00722 99.3202C4.58304 101.214 0.977904 103.064 0.226772 106.187C-0.577908 108.994 0.885278 111.312 2.62923 113.061C27.1951 129.979 50.6814 150.065 71.5872 172.971C75.2979 176.87 78.3068 180.746 81.9365 184.406C88.0513 192.542 95.234 200.743 100.855 209.47C102.618 211.312 102.92 214.341 105.676 215.238C107.834 215.985 110.498 216.492 112.556 215.238L114.603 213.183C140.021 177.179 172.259 144.842 208.277 118.736C211.881 115.516 218.768 114.32 218.867 108.344C218.611 105.588 217.006 102.871 214.638 101.366L214.049 101.269C195.514 88.6622 178.243 74.4038 161.973 58.2279L143.994 39.4487C136.71 31.3738 129.631 22.4307 122.897 13.8999ZM101.712 30.4173C108.938 24.7938 118.031 29.4636 124.111 34.6371C130.479 39.5037 137.112 45.0187 142.934 50.6537L143.992 51.2615C160.115 66.2189 175.087 82.8419 187.387 100.416C189.382 103.473 191.144 106.939 190.03 110.998C185.928 121.251 177.594 129.423 170.307 138.378C154.54 155.345 137.908 171.764 119.29 184.863C115.525 187.526 110.443 189.986 105.932 187.873C92.2266 180.7 80.6702 168.95 68.6752 158.244C54.7641 145.346 40.8023 130.329 30.259 114.619C28.6916 112.415 28.2502 109.696 28.2965 106.789C29.6511 101.366 33.3677 96.9035 36.8831 92.3321C49.3412 76.4572 64.6012 61.3985 80.0117 47.6423C80.3677 47.2906 81.0248 46.5396 81.5834 46.1821C88.2018 40.4603 94.7767 35.3953 101.712 30.4173Z" fill="white"/>
</svg>
